<svg x="0px" y="0px" width="441.363px" height="441.363px" >
<g>
	<circle fill="#FF97F5" stroke="#000000" stroke-width="5.6481" stroke-miterlimit="10" cx="220.681" cy="220.681" r="217.857"/>
	<circle fill="#FFFFFF" stroke="#000000" stroke-width="5" stroke-miterlimit="10" cx="220.681" cy="220.681" r="192.857"/>
	<circle fill="#C9E286" stroke="#000000" stroke-width="5" stroke-miterlimit="10" cx="220.681" cy="220.681" r="192.857"/>
	<g>
		<g>
			<path d="M180.677,100.17c17.644-6.343,36.971-5.046,54.954-0.872c20.737,4.814,40.485,14.183,57.971,26.227
				c16.564,11.409,31.422,25.994,41.275,43.649c4.542,8.139,7.668,17.036,9.067,26.252c1.689,11.135-1.504,21.612-5.814,31.786
				c-4.646,10.967-10.788,21.57-12.545,33.511c-1.841,12.502,4.308,23.058,13.182,31.348c0.103-0.389,0.204-0.778,0.307-1.167
				c-17.734,9.135-27.299,26.353-36.496,43.226c-10.331,18.956-22.499,37.787-46.026,40.069
				c-24.901,2.415-46.464-18.817-61.77-35.679c-18.521-20.405-33.608-44.709-42.969-70.66c-8.554-23.716-10.94-49.182-6.213-73.974
				c5.419-28.424,20.468-54.032,38.707-76.099c0.788-0.953-1.045-1.313-1.627-0.609c-17.892,21.647-32.158,46.214-38.405,73.792
				c-5.605,24.744-3.307,50.438,4.572,74.405c8.392,25.529,23.104,49.976,40.744,70.157c13.858,15.854,30.707,33.548,51.905,38.761
				c11.64,2.862,23.389,1.233,33.916-4.488c9.124-4.959,15.773-13.302,21.249-21.915c12.726-20.018,20.892-44.259,43.283-55.793
				c0.478-0.246,0.749-0.754,0.307-1.167c-9.136-8.535-14.399-18.815-12.537-31.468c1.535-10.433,6.999-20.127,11.242-29.637
				c4.072-9.125,8.025-19.279,7.479-29.457c-0.464-8.638-2.837-17.057-6.272-24.96c-15.539-35.744-52.923-60.693-88.571-73.12
				c-22.4-7.809-48.435-11.708-71.281-3.495C179.159,99.205,179.5,100.594,180.677,100.17L180.677,100.17z"/>
		</g>
	</g>
	<g>
		<g>
			<path d="M96.919,103.078c9.575-4.376,17.408-10.568,24.937-17.834c8.463-8.168,16.961-14.336,28.548-17.346
				c28.341-7.362,57.174,5.326,85.261,7.962c22.2,2.084,44.769,3.53,66.237,10.084c20.21,6.171,36.723,18.477,50.294,34.481
				c2.6,3.065,5.045,6.26,7.434,9.491c0.544,0.736,2.376-0.038,1.764-0.866c-12.263-16.59-26.892-31.028-45.826-39.716
				c-18.25-8.373-38.756-10.79-58.486-13.092c-12.751-1.488-25.479-2.03-38.122-4.414c-13.906-2.622-27.657-5.999-41.795-7.172
				c-12.153-1.009-24.461,0.161-35.84,4.699c-8.935,3.563-15.746,10.142-22.561,16.688c-6.791,6.523-14.114,11.91-22.714,15.84
				C94.849,102.433,95.915,103.537,96.919,103.078L96.919,103.078z"/>
		</g>
	</g>
	<g>
		<g>
			<path d="M122.559,291.372c-2.316,8.123-2.944,16.44,2.246,23.569c4.77,6.553,12.961,10.313,19.703,14.41
				c17.266,10.493,29.153,27.586,44.393,40.619c16.248,13.895,35.458,22.221,57.031,21.978c19.128-0.215,35.321-7.981,50.275-19.393
				c14.341-10.941,26.821-24.271,42.006-34.11c7.231-4.686,15.287-8.179,23.931-8.956c9.829-0.885,19.323,2.615,27.631,7.591
				c0.55,0.329,1.372,0.146,1.668-0.447c2.898-5.813,5.763-11.599,6.054-18.194c0.046-1.045-1.922-0.789-1.963,0.129
				c-0.284,6.455-3.115,12.131-5.946,17.81c0.556-0.148,1.111-0.298,1.668-0.447c-14.19-8.497-29.443-10.417-44.731-3.706
				c-15.745,6.911-28.389,19.908-41.257,30.934c-14.389,12.328-30.324,24.271-49.688,26.612c-24.661,2.981-46.456-5.2-65.198-20.948
				c-14.165-11.903-25.078-27.833-40.502-38.155c-6.738-4.509-14.245-7.956-20.345-13.371c-7.67-6.811-7.758-16.404-5.118-25.667
				C124.73,290.525,122.807,290.503,122.559,291.372L122.559,291.372z"/>
		</g>
	</g>
</g>
</svg>
